#!OML:ASF F:\VICON\USERDATA\INSTALL\rory3\rory3.ASF
:FULLY-SPECIFIED
:DEGREES
63
root 0.6034687900598679 17.55414176916657 22.00134844077629 -2.107691028944624 0.04502175092961336 2.9755622809365643
lfemur 2.09763259714121 0.10172466541698455 -27.96784622359712
ltibia 23.95373351042652
lfoot -7.024241348669563 0.6692143623589455
ltoes -8.785305931345846
rfemur -24.694525486945395 5.65297852300087 17.340247206159553
rtibia 32.95129018314726
rfoot -4.408332384955288 -14.481104376560546
rtoes 4.909377158044647
lowerback 10.987931562073642 -0.5084129753860788 -3.996552933003226
upperback 0.8901601397393532 -1.0905513458021296 0.8512769056135491
thorax -4.548598805842576 -0.5429898623391112 2.9915338823564297
lowerneck -16.289269633415607 -2.9160845727831495 -3.5040016221286283
upperneck 20.74124480415779 -3.6887786142305314 1.8740778079890092
head 9.315267191675211 -1.7256331101749574 0.527360129700492
lclavicle -1.9532909827049154e-15 9.068459126559928e-16
lhumerus -28.474230003492025 -1.5747518321838065 82.61845695137353
lradius 30.972707460437512
lwrist 6.684588810452659
lhand -26.68906866213926 25.362011271566736
lfingers 7.12502
lthumb -0.3010598969926548 55.01221202086887
rclavicle -1.95673404072112e-15 9.030726598952685e-16
rhumerus -30.28653727679113 -17.010500590101444 -80.38951051833277
rradius 26.33180287258601
rwrist 4.298156300176625
rhand -16.413396354697348 24.0056036756729
rfingers 7.12502
rthumb 9.605109924465525 -6.229248799272064
64
root 0.48776535679854927 17.39905848424936 21.712220640287335 -2.1997054188181377 1.215584103435643 3.177604427073929
lfemur 4.437863802016176 -0.2779615598485905 -27.788027106740422
ltibia 22.440418632509292
lfoot -6.980681774515032 0.14663410888366413
ltoes -9.708086392735886
rfemur -23.977899700381336 8.28292970610988 16.016663077184806
rtibia 24.59566789990043
rfoot -4.212648244136152 -14.596052821875864
rtoes 4.188469958079662
lowerback 11.076461132788673 -0.5548014385639092 -4.099141935222083
upperback 0.9636409135130695 -1.096803447168334 0.9336041302632484
thorax -4.473096536989634 -0.5356868995135222 3.295231433836209
lowerneck -16.44454739164336 -2.925852361340453 -3.5578250784938588
upperneck 20.691237786886074 -3.6951758331089235 2.0020093469438596
head 9.291113404498674 -1.728045044353331 0.6152040229126082
lclavicle -1.9533095055819942e-15 9.0682738403801e-16
lhumerus -27.714945757566518 -1.899594316131611 82.54469640127236
lradius 31.869552658380535
lwrist 6.756449830530017
lhand -26.644714570538333 25.867309768632545
lfingers 7.12502
lthumb -0.3152920401895409 55.41787989930184
rclavicle -1.9556090990911912e-15 9.040129512680213e-16
rhumerus -30.44794922128702 -17.69099345792034 -79.90292958190925
rradius 25.601867476179077
rwrist 5.053021524069871
rhand -16.453274356857136 24.211268547689293
rfingers 7.12502
rthumb 9.547151712598756 -6.079910564379594
65
root 0.44043836348838195 17.346561908498764 21.568105037951785 -2.2579514998889723 1.593983183989327 2.55959571858815
lfemur 6.2204365723011605 -0.7684113115192046 -26.712499136419765
ltibia 22.40473906995806
lfoot -5.74914873519342 -0.6593662800925234
ltoes -9.964541419898588
rfemur -24.071624173511307 8.333552845746802 17.296365733847217
rtibia 20.509236566136117
rfoot -5.094850174525169 -13.189315615759757
rtoes 3.917968920044219
lowerback 10.751363162224827 -0.6020485141353905 -3.587422704757241
upperback 0.9730715687261278 -1.0195197457917669 1.2012220064021932
thorax -4.39816731246597 -0.49298161392346684 3.4411791566459136
lowerneck -16.5813941895252 -2.9058692814547946 -3.528642519961027
upperneck 20.628426760367248 -3.6598048195996458 2.0474524575600115
head 9.270510597053754 -1.7136306375785613 0.6742906411820514
lclavicle -1.9541023324006985e-15 9.06093052524307e-16
lhumerus -27.084704376171118 -2.030981273642241 82.5096911518896
lradius 32.52440382810305
lwrist 6.717486896760552
lhand -26.645862795501262 26.114053550780586
lfingers 7.12502
lthumb -0.3712107761401636 55.636205333043634
rclavicle -1.954448911627764e-15 9.050873898619327e-16
rhumerus -30.643530622239815 -18.538800497338666 -79.25558066556577
rradius 24.69656392665079
rwrist 5.983015483223218
rhand -16.511775356593592 24.261668618194214
rfingers 7.12502
rthumb 9.493612789948306 -6.0078324106395025
66
root 0.353917780762757 17.414678501488652 21.6255139347843 -2.5419142541772093 1.7549394075917664 1.53667211953702
lfemur 6.997298245780943 -1.2504897325179913 -25.265938662096964
ltibia 24.77905872291123
lfoot -4.584835991776219 -1.0696019138056263
ltoes -9.932274684382593
rfemur -24.481471976753248 6.739400846398144 19.8047130775685
rtibia 21.110746057438867
rfoot -5.212822784215386 -11.030577661634583
rtoes 4.141711516259495
lowerback 10.213581184725546 -0.7735258529915391 -2.632921640179715
upperback 0.8886130161392174 -1.0922759799375017 1.557968488176263
thorax -4.381530852906331 -0.5350482067722722 3.47344152691465
lowerneck -16.702265146462718 -2.868093844048383 -3.464901266273875
upperneck 20.56714133545813 -3.5977080189322015 2.0336882376793315
head 9.255422143031389 -1.6886344305871672 0.7098489789161698
lclavicle -1.954359844637411e-15 9.058572454472486e-16
lhumerus -26.557116890115182 -1.9873888417738133 82.5942187397815
lradius 32.842137961326856
lwrist 6.644665088942345
lhand -26.6582414267207 26.158277633301196
lfingers 7.12502
lthumb -0.4304819510755926 55.69500906700471
rclavicle -1.955235227765593e-15 9.04502867029047e-16
rhumerus -30.932568798976853 -19.506579835398256 -78.6096689207072
rradius 23.849370243528895
rwrist 6.926270195023512
rhand -16.578017500796808 24.22594342206064
rfingers 7.12502
rthumb 9.435541965020459 -5.9896957713799
67
root 0.18067495278137713 17.431087888589342 20.823407709551777 -2.827062491917934 2.0376815815730756 0.5431993799534998
lfemur 7.001487436932177 -1.435714741944705 -23.63648369803631
ltibia 29.109518879512905
lfoot -3.6420049070604974 -1.8108580176714328
ltoes -9.97364497477062
rfemur -24.507338921156872 6.800908541015098 21.080592922300546
rtibia 22.70321478361195
rfoot -3.970444633251872 -9.105980665938862
rtoes 4.757850973106708
lowerback 9.819401810009094 -0.9958189875169424 -1.8181237539245834
upperback 0.7716306793948473 -1.2759959460415757 1.924466562664184
thorax -4.4230226310688 -0.6322535492331276 3.4251034496810457
lowerneck -16.82364733344652 -2.829465212188924 -3.4160717340067617
upperneck 20.55570773792134 -3.527463006046884 2.005730324449651
head 9.265746220486852 -1.6622601318488912 0.7396248735380346
lclavicle -1.9539170709246134e-15 9.062669517522222e-16
lhumerus -26.587342690351733 -2.001803591188292 82.69259457266594
lradius 33.00354128476187
lwrist 6.485309943429059
lhand -26.682994353098664 26.05927330066364
lfingers 7.12502
lthumb -0.43247884190248953 55.73014449236755
rclavicle -1.955195871174461e-15 9.04606063142027e-16
rhumerus -31.19221988652668 -20.360861615327565 -77.98756025579858
rradius 23.023965134573377
rwrist 7.821008881992622
rhand -16.651021427537422 24.1419194974829
rfingers 7.12502
rthumb 9.377770097305982 -6.002458586312379
